<svg viewBox="0 0 203.07 37.92" xmlns="http://www.w3.org/2000/svg"><path d="m56 32.14a5.74 5.74 0 0 1 -3.5.76h-.73v-8.35c0-1 .06-1.05 1.23-1.13h.81a7.55 7.55 0 0 1 .79.08 3 3 0 0 1 2 1.14 6 6 0 0 1 1 3.33 6.34 6.34 0 0 1 -.81 3.47 2.41 2.41 0 0 1 -.75.71m7.77 13.3c-.61-.56-1.77-3.29-2.83-5.78-.6-1.41-1.22-2.74-1.65-3.56a6.11 6.11 0 0 0 -1.73-2.21c-.06 0-.12 0-.19-.12a8.43 8.43 0 0 0 2.32-1.6 6.61 6.61 0 0 0 1.69-4.51 6.31 6.31 0 0 0 -1.94-4.67 8.27 8.27 0 0 0 -5.39-1.53h-7v.32h.08c.6.1.86.63.86 1.43v21.23c0 .79-.26 1.33-.86 1.42h-.07v.33h5.61v-.33h-.08c-.63-.07-.88-.62-.88-1.42v-9.54h.25 1.9.55a5.13 5.13 0 0 1 1 1.45c1.38 3.07 3.36 7.86 3.9 9.27l1 .53h4.3v-.33a1.8 1.8 0 0 1 -.91-.43m105-11.61a2.91 2.91 0 0 1 -.56.55 4.48 4.48 0 0 1 -2.71.63h-.77v-6.85c0-.76 0-.79 1-.88h.7a3.17 3.17 0 0 1 .61.07 2.32 2.32 0 0 1 1.62.9 4.88 4.88 0 0 1 .81 2.74 5.2 5.2 0 0 1 -.66 2.87m6.79 12a1.3 1.3 0 0 1 -.74-.38 23.48 23.48 0 0 1 -2.27-4.59c-.53-1.26-1.08-2.43-1.43-3.15a5.73 5.73 0 0 0 -1.49-1.85h-.13a7.56 7.56 0 0 0 1.93-1.32 5.54 5.54 0 0 0 1.44-3.8 5.25 5.25 0 0 0 -1.6-3.88 6.72 6.72 0 0 0 -4.52-1.3h-6.17v.29h.07c.55.09.81.59.81 1.31v17.43c0 .74-.26 1.24-.81 1.31h-.07v.3h5v-.3h-.07c-.55-.07-.79-.57-.79-1.31v-7.76h.78 1.42a3.94 3.94 0 0 1 .75 1.17c1.18 2.6 2.85 6.7 3.24 7.76l.69.42h4v-.35zm-27.24-8c.93-3.81 1.85-7.71 1.85-7.71v-.07.12c.82 3.1 1.46 5.65 2 7.66zm10.07 8.08c-.59-.07-.83-.57-1-1.31v-.06c-1.15-4.4-4.68-17.79-5-19.13 0-.13-.05-.16-.12-.16h-.08l-2.69.54c-.39 1.59-3.84 15.44-4.66 18.78-.18.73-.5 1.22-1.06 1.3h-.09v.3h3.78v-.3h-.07a.79.79 0 0 1 -.68-.86 2.47 2.47 0 0 1 0-.44l1.17-4.85h4.89l.13.53c.53 2 .88 3.39 1.12 4.28v.05c0 .13 0 .22.09.32a2.07 2.07 0 0 1 .07.45.46.46 0 0 1 -.43.52h-.06v.3h4.79v-.3zm-84-9.47h.14a.83.83 0 0 1 .75.69v.07h.28v-3.45h-.28v.06a.85.85 0 0 1 -.89.7h-4.03v-6.88a.16.16 0 0 1 .16-.16h4.11a1.07 1.07 0 0 1 1.18.69v.06h.3l-.34-2.49a.17.17 0 0 0 -.17-.15h-9.43v.29h.07c.6.09.8.58.8 1.3v17.42c0 .74-.2 1.23-.8 1.31h-.07v.3h10.2a.2.2 0 0 0 .16-.17l.3-2.51h-.29v.08c-.25.62-.77.83-1.69.83h-3.38c-1 0-1.11-.13-1.11-.75v-7a.16.16 0 0 1 .16-.16zm112.46-8.93h.2a1.21 1.21 0 0 1 1.13.76v.1l.26-.06-.64-2.58a.19.19 0 0 0 -.17-.15h-11.82a.17.17 0 0 0 -.17.15l-.65 2.54.27.06.05-.1a1.25 1.25 0 0 1 1.32-.77h3.25a.17.17 0 0 1 .1.14v16.93.06c0 .69-.19 1.23-.8 1.31h-.07v.3h5.18v-.3h-.07c-.61-.08-.81-.57-.81-1.31v-16.91a.17.17 0 0 1 .15-.17zm-113.43-7.27-2.55 4.69h1.12l3.7-4.69zm25.22 5.3v.29h.06c.58.09.74.45 1 1l4.49 10v.11 7.59.06c0 .74-.2 1.23-.8 1.31h-.08v.3h5v-.3h-.08c-.61-.08-.79-.57-.79-1.31v-7.92c.75-1.77 4-8.9 4.23-9.48.06-.12.1-.24.14-.32.31-.6.56-1 1.14-1h.07v-.28h-3.9v.28h.07a.58.58 0 0 1 .55.61 1.9 1.9 0 0 1 -.14.64v.1c-.63 1.58-2.87 6.62-3.06 7.1v-.08l-3.21-7v-.07a2.65 2.65 0 0 1 -.29-.93.34.34 0 0 1 .33-.38h.08v-.29zm22.29-4v.32h.06c.54.07.78.52.78 1.2v.28l-1.12 21.1v.09c-.07.77-.42 1.28-1 1.35h-.08v.33h4.13v-.33h-.09c-.53-.07-.82-.53-.82-1.2a1.62 1.62 0 0 1 0-.22v-.07l.65-15.6v-.61l6.29 17.25c0 .07.05.12.12.12s.1 0 .14-.14l5.55-16.58.15-.47.09-.34.13 1.66 1 14.71v.07q0 .3 0 .54c0 .5-.11.82-.56.88h-.07v.33h5.39v-.33h-.07c-.57-.07-.9-.55-1-1.24l-1.63-21.3v-.33c0-.65.23-1.06.77-1.13h.07v-.32h-3.67a.22.22 0 0 0 -.23.18l-5.32 15.48-5.52-15.53a.26.26 0 0 0 -.25-.17zm-40.7 4v.29h.06c.55.08.72.43.73 1v.4l-1.03 17.3v.06c-.06.74-.32 1.23-.92 1.31h-.08v.3h3.68v-.3h-.08c-.54-.07-.76-.48-.76-1.11v-.26c.14-2.7.64-12.72.64-12.72v-.76c.32.9 4.28 12 5.12 14.41 0 .06 0 .12.13.12s.07 0 .11-.12l4.5-13.92a3.3 3.3 0 0 1 .12-.36l.1-.32.11 1.32 1 12.31v.06a5 5 0 0 1 0 .61c0 .39-.1.64-.5.7h-.08v.3h4.91v-.3h-.08c-.56-.07-.75-.47-.83-1.1l-1.61-17.55v-.07c0-.12 0-.23 0-.33 0-.55.17-.9.71-1h.07v-.29h-3.32a.22.22 0 0 0 -.21.16l-4.29 12.45-4.52-12.46a.2.2 0 0 0 -.2-.13zm120.27 0v.29h.07c.55.09.87.59.87 1.31v17.45c0 .74-.25 1.23-.81 1.31h-.06v.3h3.76v-.3h-.07c-.54-.07-.87-.57-.87-1.3v-13.94.05c.65 1.35 7.61 15.5 7.61 15.5h1.61v-19.07c0-.72.25-1.22.81-1.31h.07v-.29h-3.71v.29h.1c.55.09.84.56.88 1.26v11.17c-.55-1.07-6.17-12.4-6.26-12.56a.35.35 0 0 0 -.24-.16zm-4.35 0h-5v.29h.07c.51.08.81.59.81 1.31v17.45c0 .73-.3 1.24-.81 1.31h-.07v.3h5v-.3c-.52-.07-.81-.58-.81-1.31v-17.45c0-.72.29-1.22.81-1.31zm-163.41 5.86a5.63 5.63 0 0 0 -.5.74c-.34.63-.71.22-.9 0-.1-.08-.25-.45-3-.49-1.4 0-1.7-.7-1.75-.87a1.44 1.44 0 0 0 -.46-.73c-.15-.16-.16-.3.28-.14.83.31 1.37 1.15 2.11 1.28.33.06.53.15.17-.15s-.49-.45-.79-.7-.25-.23.15-.12a9.15 9.15 0 0 1 2.42.79 4.48 4.48 0 0 1 .92.69c.43.4.72.16 1.07-.48.23-.39.82-1.16.88-1.23s0-.06 0 0a6 6 0 0 1 -.63 1.4m-9.62 5.44a10.19 10.19 0 0 0 -1.77-.82c-.23-.12-.32.19-.29.67a.63.63 0 0 1 -.37.62c-.11-.06-.14 0-.23-.31s-.05-.59-.66-.82a.62.62 0 0 1 -.27-.94 1.65 1.65 0 0 0 .82.77c.05-.16-.06-.26-.23-.5-.1-.14-.1-.49.28-.49a2.92 2.92 0 0 1 1.64.35 5.44 5.44 0 0 0 2.17.74 7.89 7.89 0 0 0 6.59-3.17c-.77 1.46-2.72 4-7.68 3.88m-1.59 4.54-.09.12c-.13.21-.88.64-.8 1.2.43.72 1.73.88 2.45 1 0 0 1 .12 1.18.47s.37.18.65.21a1.09 1.09 0 0 0 .46.58 2.8 2.8 0 0 1 .39.66c.08.35-.76.35-1 .14a.46.46 0 0 1 -.07-.41.44.44 0 0 0 0-.32 1.87 1.87 0 0 0 -.51-.44.8.8 0 0 0 -.41.14c-.16.09-.26.14-.39.06a1.49 1.49 0 0 0 -1.17-.26h-.33c-.71-.61-2-1-2.29-1.37-.13-.16-.18-.26 0-.45 0 0-.08-.13-.2-.07a1 1 0 0 1 -.35.11c-.33.06-.07-.21 0-.32a9.64 9.64 0 0 1 1.32-.85 6.22 6.22 0 0 0 2.1-1.91 5.24 5.24 0 0 1 -1 1.68m.55 4.94a2.14 2.14 0 0 1 0-.24c0-.06 0-.14 0-.22a.39.39 0 0 0 -.26-.36h-.34-.07a1.29 1.29 0 0 1 -.56-.27c-.3-.21-.57-.63-1-.62h.05l-.45-.09c-.33-.1-1-.57-1.21-.57a0 0 0 0 0 -.05 0l.05.52a1.75 1.75 0 0 1 0 .48 1.41 1.41 0 0 1 -1.16 1.12 1.47 1.47 0 0 0 .69-1.12c0-.8-.21-.93-.31-.93a.05.05 0 0 0 0 0 9.78 9.78 0 0 0 -.38-2.52 3.77 3.77 0 0 0 -.52-1l.13.12c1 1 .74 2.18.92 2l.69-.64a2.34 2.34 0 0 0 .51-1.76c-.19-.67-.64-.93-1.09-1.47l-.84-.83a2.53 2.53 0 0 1 -.13-2.27 1.49 1.49 0 0 0 .1-.46c.09-.41-.14-.53-.46-.53-.57 0-1.42.39-1.34.17a2.17 2.17 0 0 1 1.61-.49h.1c.52.06.85.62.53 1.32a1.48 1.48 0 0 0 1.21 2.23c1.06.09.75.54 1.64.92a4.37 4.37 0 0 0 1.44.26 1.51 1.51 0 0 1 -.63.16h-.1a5.21 5.21 0 0 1 -1.17-.16h-.09c-.24 0-.5.21-.2.54a2.38 2.38 0 0 0 1.27.71 4.75 4.75 0 0 1 -.63.91 11.83 11.83 0 0 1 -2 1.59c-.56.44-.19.67.17.72a8.29 8.29 0 0 1 1.25.23c1.06.56.75.67 1.16 1 .64.54 1.57.34 1.77.91s-.09.28-.22.53a1.22 1.22 0 0 0 -.07.17m-5.49-8.33.65.85a5.1 5.1 0 0 1 1.08 1.71 1.43 1.43 0 0 1 0 .29 2.19 2.19 0 0 1 -.36 1.17 5.89 5.89 0 0 0 -2-2.56.59.59 0 0 1 -.15-.36v-.23s-.22-.33-.22-.33a1.38 1.38 0 0 1 -.3-.59h.08l.17-.16a1 1 0 0 0 0-.17 1.52 1.52 0 0 0 -.17-.63l-.16-.46a1.55 1.55 0 0 1 0-.21.86.86 0 0 1 .38-.83.84.84 0 0 1 .45-.14.76.76 0 0 1 .27 0 .19.19 0 0 1 .11.18v.06a3 3 0 0 0 -.2 1.09 2.39 2.39 0 0 0 .39 1.29m-4.07-6.29a3.22 3.22 0 0 0 .24-.28c0-.07 0-.12.13-.16s0 .17.19.3c.29.3.42.33.61.2a2.16 2.16 0 0 1 .7 0c.2 0 .28 0 .42-.13a4.43 4.43 0 0 1 .43-.6c.45-.42 1.87-.94 2.31-1.91 0-.05.47 0 .74-.26a2.82 2.82 0 0 0 .73-.7c.61-.81.52-.84.93-1.11a1.45 1.45 0 0 0 -.07-1.41c-.23-.3-.14-.44.5-.73s1.9-.07 2.72-.53a.1.1 0 0 0 .06-.09.27.27 0 0 1 .06-.24c.12-.14.28 0 .43-.14.4-.34.95-.67.4.37-.11.23.43.08 1.07.25.45.14 0 .65 1.11.79.16 0 .17.33.33.37a2.07 2.07 0 0 0 1.1-.15c.52-.17.38.15.18.28a9.86 9.86 0 0 0 -.87.49c-.31.22-.26.23.12.14s.39.12.14.3a2.51 2.51 0 0 0 -.45.35c-.17.14-.12.2.13.19a6.51 6.51 0 0 0 1.26-.46c.29-.11.63 0 .16.21a4.24 4.24 0 0 0 -1.1.72c-.3.2-.32.53-.85 1.09a1.52 1.52 0 0 1 -.74.47c-.39 0 .17-1.27.16-1.43a1.75 1.75 0 0 0 -.07-.35c.3-.7-.55-.9-.94-1a9.45 9.45 0 0 1 -2.18-.25c-1.53-.3-2.51 1.47-3.44 2.28 0 0-.84.69-1.39 1.26l-1.27.86a13 13 0 0 0 -1.67 1.28 1.22 1.22 0 0 1 -.4.22 1.7 1.7 0 0 0 -.65.41 1.38 1.38 0 0 1 -1.19.21 2.21 2.21 0 0 1 -.36-.26c-.1-.11.05-.29.06-.41a.29.29 0 0 1 .08-.21.62.62 0 0 1 .14-.22m6.53-9.33c.27.09.71.19.81.49a1.54 1.54 0 0 1 -.05.88 6.76 6.76 0 0 0 -1 1.21c-.19.21-.06.95-.61 1.45-.88.79-.74 2.11-1.88 2.44-.63.22-1.8 1.93-1.86 2a.22.22 0 0 0 -.08 0h-.49c1.49-2.44 4.89-7.91 5.18-8.43m-1.19-1.1c-.86-.15-.75-.68-.75-.68a.18.18 0 0 1 -.06-.25l-.19-.12a.63.63 0 0 1 0-.24c-.11-.33 0 0 .19-.15 0 .15 0-.14.1-.17s.17.07.24.21-.08-.32.19-.37.37 0 .37-.21-.23.09-.24-.22.1-.17.16-.17c.22 0 .1.26.32.19.51-.17.28.18.51.21s.26.26.37.25.12-.22.11-.39a.67.67 0 0 1 .16-.45.61.61 0 0 1 .57-.26.57.57 0 0 1 .37.19c0 .1-.22 0-.24.06s.16.24 0 .36a.22.22 0 0 1 -.34-.13c-.12.07-.14.31-.17.51 0 0-.06.61.48.41.05-.07-.71 1.17-1.08 1.79-.35-.08-.88.09-1.05-.3m2.84-1.55a1 1 0 0 1 .3 0c.05 0 .05.08-.05.31s.3 0 .5 0a.62.62 0 0 1 -.05.49l-.13.16a1.1 1.1 0 0 0 -.3.5 5.08 5.08 0 0 0 .05 1.35c.06.34.54-.22.85-.28.82-.16.25.25 0 .37s-.45.49-.73.57a3.82 3.82 0 0 0 -.88.39 3 3 0 0 0 -.25-1.1 2.39 2.39 0 0 0 -.48-.72c-.07-.06 0 0-.18-.09zm3.21 2.2c.28.12.16.07.49 0 .76-.09 1 .18 1 .47s.22.31.42.27a.71.71 0 0 1 .62.18c.32.33.38.25.76.5.14.1.26.17.28.29s0 .34-.31 0c-.13-.16-.37-.15-.74-.23a1.35 1.35 0 0 1 -.79-.37 1.66 1.66 0 0 0 -1-.51 2.79 2.79 0 0 1 -.94-.45c-.18-.19-.07-.32.21-.2m.62-3.23c.09-.2.35-.37.81-.81s1.64-.83 1.47-1a1.78 1.78 0 0 1 0-1c.5-.9 1.77-1.26 2.13-1.88.09-.17.59-.61-.07-.33-.17.07-.41 0 0-.29.3-.16.53-.35.68-.44a1.57 1.57 0 0 0 .35-.24c.28 0-.16.36-.38.72s-.34.94-.52 1.3a2.47 2.47 0 0 1 -1.12 1.41 16.47 16.47 0 0 1 -1.8 2.67 2.79 2.79 0 0 0 -.65 1.37c-.92.3-1-1.37-.95-1.5m5.14-6.49c.11-.16.2-.19.47-.11s.45-.18.59-.42c.3-.48.34-.38.22-.19l-.23.5c-.06.23-.52.32-.78.37a.56.56 0 0 0 -.24.07c-.06 0-.14 0 0-.22m-1.64 11.91a1.29 1.29 0 0 1 .69.19 2.85 2.85 0 0 0 .16.3v.06c0 .11-.12.2-.29.09s-.3-.41-.57-.48-.22-.18 0-.19m-15.8 7.17a.39.39 0 0 0 -.19.28c-.09 0-.2.13-.26.31l-.08.39a.47.47 0 0 0 .08.27v.12c0 .12.12.14.15.16l-.89 1.42-.53.88s0 .13.17.24a.34.34 0 0 0 .31.05l.53-.89.85-1.36.22.16a.59.59 0 0 0 .64-.09 5.06 5.06 0 0 1 .64-.44 1.66 1.66 0 0 1 .62-.4 1.43 1.43 0 0 0 .45-.26 5.69 5.69 0 0 1 1.79-1.21 3.17 3.17 0 0 0 .9-.48 4.3 4.3 0 0 0 .54-.65 9.13 9.13 0 0 1 1.68-1.5 2.74 2.74 0 0 0 .62-.65c.13-.14.25-.29.39-.43a2.51 2.51 0 0 0 .24-.19.49.49 0 0 1 .15-.1 1 1 0 0 1 .5-.13 6.34 6.34 0 0 1 1.23.13 5.18 5.18 0 0 0 1.69.12 1.37 1.37 0 0 1 .72.52l.09.1s-.07.19-.08.25 0 .18-.07.25a.45.45 0 0 0 -.17.28 3.48 3.48 0 0 1 -1 1.92 6.15 6.15 0 0 1 -3.2 1.67 7.55 7.55 0 0 0 -2.68 1.14l-.33.26a1.86 1.86 0 0 1 -.93.54 1.43 1.43 0 0 1 -.67-.13 1.94 1.94 0 0 0 -.68-.17h-.25a2.73 2.73 0 0 0 -1.66.57 3.9 3.9 0 0 0 -1.32 2.79v.25.25a6.38 6.38 0 0 0 .26 1c.12.36.29 1 .3 1a.21.21 0 0 1 0 .18c0 .06.14 0 .18.05h.09.06l.32.69a5.36 5.36 0 0 0 .82 1.45.17.17 0 0 0 .14.1.33.33 0 0 0 .12-.05h.08l.55.82a3.92 3.92 0 0 1 1 2.15v.29a1.77 1.77 0 0 1 -.94 1.1.6.6 0 0 0 0 .16.49.49 0 0 0 .27.22.84.84 0 0 0 .27 0h.14a1.69 1.69 0 0 0 1.05-.46 2 2 0 0 0 1.41-1.2l.09-.4h.06a5.13 5.13 0 0 1 .51.12l.57.14a1.28 1.28 0 0 1 .84.49c.32.32.65.64 1.15.47a.17.17 0 0 1 .14.17 2.06 2.06 0 0 1 0 .21v.27c0 .11.09.16.15.2s.08.05.08.07a.29.29 0 0 0 -.1.2.55.55 0 0 0 .12.28l.11.19a2.94 2.94 0 0 0 .7.12h.16a1.58 1.58 0 0 0 1.06-.44 2.59 2.59 0 0 0 -.26-.65c-.09 0-.11-.11-.14-.22a.69.69 0 0 0 -.16-.29 2.65 2.65 0 0 1 -1.07-1.08l-.07-.11a1.73 1.73 0 0 1 .92.41.56.56 0 0 0 .19.07h.06a.85.85 0 0 0 .31-.13.68.68 0 0 1 .32-.11.2.2 0 0 1 .13.07.07.07 0 0 1 0 .05.44.44 0 0 1 0 .15.71.71 0 0 0 0 .2.25.25 0 0 0 .1.2.5.5 0 0 0 .15.36 1.37 1.37 0 0 0 .91.24h.06a.87.87 0 0 0 .86-.45v-.06a7.35 7.35 0 0 0 -.48-.84.86.86 0 0 1 -.41-.55.89.89 0 0 1 -.6-.36 1.1 1.1 0 0 0 -.66-.42l-.71-.12c-.72-.1-1.41-.2-1.79-.85a1.09 1.09 0 0 1 -.07-.35 1 1 0 0 1 .16-.54l.09-.11a5 5 0 0 0 1.55-2.89v-.46c0-.14 0-.26 0-.35s.05-.29.21-.33h.33a9.31 9.31 0 0 0 3.91-1.09 7.76 7.76 0 0 0 3.34-3.31l.34.13c.26.07.66.18.88-.14a4.85 4.85 0 0 1 .57-1.16l.13-.19a5.74 5.74 0 0 0 .58-1.81 4.23 4.23 0 0 0 .58-1.34c.1-.34 0-.82.16-1.12a3.21 3.21 0 0 1 .89-.86 1.93 1.93 0 0 0 .53.32.36.36 0 0 1 .24.15.13.13 0 0 1 0 .08c0 .09-.07.15-.19.25s-.25.19-.25.36v.05a.22.22 0 0 1 .08.15.63.63 0 0 1 -.07.21.49.49 0 0 0 -.1.3 3.29 3.29 0 0 0 1.66 1.5h.07l.13-.39a2.16 2.16 0 0 0 .07-.51.85.85 0 0 1 .17-.65l-.15-.74a5.72 5.72 0 0 1 -.2-1.26v-.2a1 1 0 0 0 -.56-.79 4.39 4.39 0 0 1 1.68-.95.4.4 0 0 0 .36-.48v-.08a.39.39 0 0 1 .11-.32.06.06 0 0 1 .07 0 .35.35 0 0 1 .16.06c.24.13.37 0 .48-.13l.07-.08c.81.08 1-.46 1.22-1l.1-.26a1 1 0 0 0 .07-.73h-.05a4.72 4.72 0 0 0 -1.16.4h-.09-.08a1.51 1.51 0 0 0 -.76.33l-.27.18a4.91 4.91 0 0 0 -1.92 1.28 7 7 0 0 1 -1.4 1.05c.41.14.84.18 1.08.45.05.06.12.3.16.33a4.67 4.67 0 0 0 -1.7-.59l-.43-.1h-.06a3.93 3.93 0 0 0 -1.71 1.59c-.08.36-.23 1.11-.28 1.34a7.12 7.12 0 0 1 -.33 1.36 11.63 11.63 0 0 0 -.77-1.66 5.76 5.76 0 0 1 -.83-1.24 2.7 2.7 0 0 0 -.75-1.14 1.78 1.78 0 0 1 -.7-.88 1.77 1.77 0 0 0 -.78-1l-.09-.24a5 5 0 0 0 -1.45-1.39 1 1 0 0 1 -.71-.7l-.14-.21a1.76 1.76 0 0 1 0-.31 2.87 2.87 0 0 1 .78-1.67 6.4 6.4 0 0 0 1.31-1.9l.4-.56a3.81 3.81 0 0 0 .92-1.9c.12-.38.11-.26.32-.59.52-.85.7-1.1.89-1.15h.09a.68.68 0 0 0 .38-.51l.09-.32.07-.25a1.76 1.76 0 0 0 .36-.69.3.3 0 0 0 -.08-.18.08.08 0 0 0 -.07 0l.13-.17c.1-.13.29-.34.29-.49s-.17-.27-.24-.28c-.11 0-.58.5-.58.5-.2.16-1.31 1.53-1.31 1.53a21.64 21.64 0 0 0 -1.48 1.81l-.66.59-.95 1a2.72 2.72 0 0 0 -.66 1.17 3.07 3.07 0 0 0 -1.36 1.67 3.77 3.77 0 0 1 -.95.74c-.62.39-1.24.8-1.31 1.63a2.12 2.12 0 0 0 -.53.35l-.27.21c-.14.1-.17 0-.24-.05.21-.28.24-.33.28-.39a.39.39 0 0 0 0-.18.54.54 0 0 0 -.31-.43v-.1a.28.28 0 0 0 -.12-.23.16.16 0 0 0 -.11-.17s0-.06.08-.12a.5.5 0 0 0 .1-.21.06.06 0 0 0 0 0l-.12-.11 4.86-8.04a.47.47 0 0 1 .18-.3 1 1 0 0 0 .24-.62.44.44 0 0 0 0-.12h-.13a.77.77 0 0 0 -.52.47.52.52 0 0 1 -.19.31s-4.8 7.75-4.85 7.85-.12-.07-.15-.19a.45.45 0 0 0 -.26-.29 3.11 3.11 0 0 1 -.77-.27c-.11 0-.08 0-.15-.07a.41.41 0 0 0 -.29-.23h-.06-.15a.76.76 0 0 1 -.34.05h-.06a.56.56 0 0 0 -.58.28h-.09c-.35 0-.49.31-.62.57a1 1 0 0 1 -.31.46.8.8 0 0 0 -.27.62v.4.22a1.42 1.42 0 0 0 0 .28.43.43 0 0 0 .09.23 1.33 1.33 0 0 0 .74 1 1.09 1.09 0 0 0 .93.6s0 0 .09.05l-5.24 8.48s0 0 0 0a.34.34 0 0 0 -.14.05l-.23.11c-.21.05-.25.13-.26.31" transform="translate(-10.47 -9.63)"/></svg>